<?xml version="1.0" encoding="utf-8"?>
<svg width="800px" height="800px" viewBox="0 0 1024 1024" class="icon"  version="1.1" xmlns="http://www.w3.org/2000/svg"><path d="M182.459627 15.900621h658.285715c12.720497 0 22.26087 10.335404 22.260869 22.26087v946.881987c0 12.720497-10.335404 22.26087-22.260869 22.26087H182.459627c-12.720497 0-22.26087-10.335404-22.260869-22.26087V38.161491C160.198758 26.236025 170.534161 15.900621 182.459627 15.900621z" fill="#7D8792" /><path d="M841.540373 1024H182.459627c-21.465839 0-38.161491-17.490683-38.16149-38.161491V38.161491C144.298137 17.490683 161.78882 0 182.459627 0h658.285715c21.465839 0 38.161491 17.490683 38.16149 38.161491v946.881987c0.795031 21.465839-16.695652 38.956522-37.366459 38.956522zM182.459627 31.801242c-3.180124 0-6.360248 3.180124-6.360248 6.360249v946.881987c0 3.975155 3.180124 6.360248 6.360248 6.360249h658.285715c3.975155 0 6.360248-3.180124 6.360248-6.360249V38.161491c0-3.975155-3.180124-6.360248-6.360248-6.360249H182.459627z" fill="" /><path d="M254.012422 111.304348h512.795031v194.782609H254.012422z" fill="#BFEBFF" /><path d="M782.708075 321.987578H238.111801V95.403727h544.596274v226.583851z m-512.795032-31.801243h480.993789V127.204969H269.913043v162.981366z" fill="" /><path d="M276.273292 401.490683h186.832298c12.720497 0 22.26087 10.335404 22.26087 22.26087v176.496894c0 12.720497-10.335404 22.26087-22.26087 22.26087H276.273292c-12.720497 0-22.26087-10.335404-22.26087-22.26087V423.751553c0-11.925466 9.540373-22.26087 22.26087-22.26087z" fill="#BEC9D4" /><path d="M463.10559 638.409938H276.273292c-21.465839 0-38.161491-17.490683-38.161491-38.161491V423.751553c0-21.465839 17.490683-38.161491 38.161491-38.161491h186.832298c21.465839 0 38.161491 17.490683 38.161491 38.161491v176.496894c0 21.465839-16.695652 38.161491-38.161491 38.161491zM276.273292 417.391304c-3.975155 0-6.360248 3.180124-6.360249 6.360249v176.496894c0 3.975155 3.180124 6.360248 6.360249 6.360249h186.832298c3.975155 0 6.360248-3.180124 6.360249-6.360249V423.751553c0-3.975155-3.180124-6.360248-6.360249-6.360249H276.273292z" fill="" /><path d="M561.689441 401.490683H748.521739c12.720497 0 22.26087 10.335404 22.26087 22.26087v176.496894c0 12.720497-10.335404 22.26087-22.26087 22.26087H561.689441c-12.720497 0-22.26087-10.335404-22.26087-22.26087V423.751553c0-11.925466 9.540373-22.26087 22.26087-22.26087z" fill="#BEC9D4" /><path d="M748.521739 638.409938H561.689441c-21.465839 0-38.161491-17.490683-38.161491-38.161491V423.751553c0-21.465839 17.490683-38.161491 38.161491-38.161491H748.521739c21.465839 0 38.161491 17.490683 38.161491 38.161491v176.496894c0 21.465839-16.695652 38.161491-38.161491 38.161491zM561.689441 417.391304c-3.975155 0-6.360248 3.180124-6.360248 6.360249v176.496894c0 3.975155 3.180124 6.360248 6.360248 6.360249H748.521739c3.975155 0 6.360248-3.180124 6.360249-6.360249V423.751553c0-3.975155-3.180124-6.360248-6.360249-6.360249H561.689441z" fill="" /><path d="M561.689441 686.111801H748.521739c12.720497 0 22.26087 10.335404 22.26087 22.26087v176.496894c0 12.720497-10.335404 22.26087-22.26087 22.26087H561.689441c-12.720497 0-22.26087-10.335404-22.26087-22.26087V708.372671c0-11.925466 9.540373-22.26087 22.26087-22.26087z" fill="#BEC9D4" /><path d="M748.521739 923.031056H561.689441c-21.465839 0-38.161491-17.490683-38.161491-38.161491V708.372671c0-21.465839 17.490683-38.161491 38.161491-38.161491H748.521739c21.465839 0 38.161491 17.490683 38.161491 38.161491v176.496894c0 21.465839-16.695652 38.161491-38.161491 38.161491zM561.689441 702.012422c-3.975155 0-6.360248 3.180124-6.360248 6.360249v176.496894c0 3.975155 3.180124 6.360248 6.360248 6.360249H748.521739c3.975155 0 6.360248-3.180124 6.360249-6.360249V708.372671c0-3.975155-3.180124-6.360248-6.360249-6.360249H561.689441z" fill="" /><path d="M276.273292 686.111801h186.832298c12.720497 0 22.26087 10.335404 22.26087 22.26087v176.496894c0 12.720497-10.335404 22.26087-22.26087 22.26087H276.273292c-12.720497 0-22.26087-10.335404-22.26087-22.26087V708.372671c0-11.925466 9.540373-22.26087 22.26087-22.26087z" fill="#BEC9D4" /><path d="M463.10559 923.031056H276.273292c-21.465839 0-38.161491-17.490683-38.161491-38.161491V708.372671c0-21.465839 17.490683-38.161491 38.161491-38.161491h186.832298c21.465839 0 38.161491 17.490683 38.161491 38.161491v176.496894c0 21.465839-16.695652 38.161491-38.161491 38.161491zM276.273292 702.012422c-3.975155 0-6.360248 3.180124-6.360249 6.360249v176.496894c0 3.975155 3.180124 6.360248 6.360249 6.360249h186.832298c3.975155 0 6.360248-3.180124 6.360249-6.360249V708.372671c0-3.975155-3.180124-6.360248-6.360249-6.360249H276.273292zM369.291925 578.782609c-8.745342 0-15.900621-7.15528-15.900621-15.900621V461.118012c0-8.745342 7.15528-15.900621 15.900621-15.900621s15.900621 7.15528 15.900622 15.900621v101.763976c0 8.745342-7.15528 15.900621-15.900622 15.900621z" fill="" /><path d="M418.583851 527.900621H321.590062c-8.745342 0-15.900621-7.15528-15.900621-15.900621s7.15528-15.900621 15.900621-15.900621h97.78882c8.745342 0 15.900621 7.15528 15.900621 15.900621s-7.950311 15.900621-16.695652 15.900621z" fill="" /><path d="M402.68323 847.503106c-3.975155 0-7.950311-1.590062-11.130435-4.770187l-69.167702-69.167702c-6.360248-6.360248-6.360248-15.900621 0-22.260869 6.360248-6.360248 15.900621-6.360248 22.26087 0l69.167702 69.167702c6.360248 6.360248 6.360248 15.900621 0 22.260869-2.385093 3.180124-7.15528 4.770186-11.130435 4.770187z" fill="" /><path d="M333.515528 847.503106c-3.975155 0-7.950311-1.590062-11.130435-4.770187-6.360248-6.360248-6.360248-15.900621 0-22.260869l69.167702-69.167702c6.360248-6.360248 15.900621-6.360248 22.26087 0 6.360248 6.360248 6.360248 15.900621 0 22.260869l-69.167702 69.167702c-3.180124 3.180124-7.15528 4.770186-11.130435 4.770187z" fill="" /><path d="M709.565217 527.900621H600.645963c-8.745342 0-15.900621-7.15528-15.900621-15.900621s7.15528-15.900621 15.900621-15.900621h109.714285c8.745342 0 15.900621 7.15528 15.900622 15.900621s-7.950311 15.900621-16.695653 15.900621z" fill="" /><path d="M709.565217 785.490683H600.645963c-8.745342 0-15.900621-7.15528-15.900621-15.900621s7.15528-15.900621 15.900621-15.900621h109.714285c8.745342 0 15.900621 7.15528 15.900622 15.900621s-7.950311 15.900621-16.695653 15.900621z" fill="" /><path d="M709.565217 847.503106H600.645963c-8.745342 0-15.900621-7.15528-15.900621-15.900622s7.15528-15.900621 15.900621-15.900621h109.714285c8.745342 0 15.900621 7.15528 15.900622 15.900621s-7.950311 15.900621-16.695653 15.900622z" fill="" /></svg>